<?xml version="1.0" encoding="UTF-8" standalone="no"?>
<!DOCTYPE svg PUBLIC "-//W3C//DTD SVG 1.1//EN" "http://www.w3.org/Graphics/SVG/1.1/DTD/svg11.dtd">
<svg width="100%" height="100%" viewBox="0 0 292 334" version="1.1" xmlns="http://www.w3.org/2000/svg" xmlns:xlink="http://www.w3.org/1999/xlink" xml:space="preserve" xmlns:serif="http://www.serif.com/" style="fill-rule:evenodd;clip-rule:evenodd;stroke-linejoin:round;stroke-miterlimit:2;">
    <g transform="matrix(1,0,0,1,-1230.242805,-2600.764895)">
        <g transform="matrix(2.542969,0,0,2.542969,518.71875,2245.691406)">
            <path d="M377.318,215.177C362.262,224.189 344.628,234.319 341.772,235.96C336.914,238.751 337.117,235.746 333.266,231.715C332.642,231.061 332.716,231.136 325.471,223.527C308.492,205.697 307.727,205.151 308.896,203.781C308.948,203.72 336.14,174.075 336.604,173.605C339.473,170.701 340.142,173.504 393.303,202.824C396.87,204.791 393.177,205.705 377.318,215.177Z" style="fill:rgb(245,56,57);"/>
            <path d="M295.219,232.396C303.24,211.489 303.106,211.459 303.865,209.668C304.883,207.264 305.75,208.484 307.583,210.419C331.763,235.942 331.981,235.654 334.016,237.929C336.481,240.684 333.301,240.86 295.265,263.109C282.457,270.601 279.763,272.315 280.755,269.545C287.487,250.754 288.09,251.078 295.219,232.396Z" style="fill:rgb(245,56,57);"/>
            <path d="M294.783,178.388C291.137,169.381 287.49,160.373 283.843,151.366C280.996,144.327 278.567,140.125 280.486,139.63C280.498,139.626 320.293,162.08 323.754,164.033C329.975,167.543 335.66,169.328 333.12,172.168C331.011,174.528 316.65,190.587 306.134,201.095C304.081,203.146 303.204,199.212 294.783,178.388Z" style="fill:rgb(245,56,57);"/>
        </g>
    </g>
</svg>
