<?xml version="1.0" encoding="UTF-8" standalone="no"?><!DOCTYPE svg PUBLIC "-//W3C//DTD SVG 1.1//EN" "http://www.w3.org/Graphics/SVG/1.1/DTD/svg11.dtd"><svg width="100%" height="100%" viewBox="0 0 870 334" version="1.1" xmlns="http://www.w3.org/2000/svg" xmlns:xlink="http://www.w3.org/1999/xlink" xml:space="preserve" xmlns:serif="http://www.serif.com/" style="fill-rule:evenodd;clip-rule:evenodd;stroke-linejoin:round;stroke-miterlimit:2;"><g>
    <!-- The Ring (Outer O) - Thicker Stroke (28px) -->
    <circle cx="167" cy="167" r="145" style="fill:none;stroke:#fcfcfc;stroke-width:28;"/>
    
    <!-- The Dot (Inner shape) -->
    <circle cx="167" cy="167" r="45" style="fill:#fcfcfc;stroke:none;"/>
    
    <!-- Letter R (End) -->
    <path d="M827.213,190.707c-36.641,21.931 -79.554,46.584 -86.505,50.578c-11.823,6.792 -11.33,-0.52 -20.699,-10.331c-1.52,-1.592 -1.339,-1.409 -18.971,-19.925c-41.321,-43.392 -43.181,-44.719 -40.337,-48.054c0.128,-0.15 66.301,-72.293 67.432,-73.437c6.982,-7.067 8.609,-0.245 137.982,71.108c8.679,4.787 -0.307,7.01 -38.901,30.061Z" style="fill:#fcfcfc;"/>
    
    <!-- Letter T (Middle) -->
    <path d="M448.015,3.1c117.609,0 119.29,-0.521 120.365,3.04c0.022,0.074 2.177,38.729 -1.698,40.675c-1.141,0.573 -231.228,1.76 -233.699,-0.612c-2.365,-2.27 -2.717,-41.002 0.437,-42.46c1.637,-0.756 1.763,-0.643 114.595,-0.643Z" style="fill:#fcfcfc;"/>
    <path d="M445.581,331.043c-12.875,-0.247 -15.559,3.73 -17.522,-3.105c-0.735,-2.559 -0.315,-190.457 -0.278,-207.019c0.024,-10.707 3.571,-9.715 12.933,-9.722c12.192,-0.008 31.357,-2.137 31.558,4.862c0.042,1.473 0.039,5.345 0.038,204.414c-0,17.824 -8.865,10.53 -26.729,10.569Z" style="fill:#fdfcfc;"/>
    
    <!-- Letter R (Additional Parts) -->
    <path d="M627.417,232.611c19.519,-50.88 19.193,-50.952 21.04,-55.311c2.478,-5.851 4.587,-2.88 9.048,1.829c58.844,62.113 59.375,61.412 64.327,66.947c5.999,6.706 -1.74,7.134 -94.304,61.278c-31.168,18.232 -37.724,22.403 -35.31,15.662c16.381,-45.73 17.849,-44.94 35.199,-90.405Z" style="fill:#fcfcfc;"/>
    <path d="M626.357,101.179c-8.875,-21.921 -17.75,-43.841 -26.625,-65.762c-6.929,-17.129 -12.84,-27.356 -8.169,-28.561c0.029,-0.008 96.874,54.636 105.296,59.389c15.138,8.541 28.974,12.885 22.793,19.798c-5.134,5.741 -40.08,44.824 -65.674,70.397c-4.994,4.99 -7.13,-4.585 -27.622,-55.26Z" style="fill:#fcfcfc;"/>
</g></svg>