<?xml version="1.0" encoding="UTF-8" standalone="no"?><!DOCTYPE svg PUBLIC "-//W3C//DTD SVG 1.1//EN" "http://www.w3.org/Graphics/SVG/1.1/DTD/svg11.dtd"><svg width="100%" height="100%" viewBox="0 0 324 168" version="1.1" xmlns="http://www.w3.org/2000/svg" xmlns:xlink="http://www.w3.org/1999/xlink" xml:space="preserve" xmlns:serif="http://www.serif.com/" style="fill-rule:evenodd;clip-rule:evenodd;stroke-linejoin:round;stroke-miterlimit:2;"><g><g><g><path d="M34.032,135.735c-4.096,2.264 -4.3,1.9 -16.343,1.934c-8.267,0.023 -10.478,0.397 -11.253,-1.535c-0.651,-1.624 0.898,-3.978 3.413,-11.276c0.734,-2.13 0.905,-2.061 9.369,-26.557c6.444,-18.649 6.006,-19.271 2.409,-30.104c-11.561,-34.819 -21.777,-62.869 -21.625,-65.309c0.081,-1.297 1.685,-4.459 5.684,-1.943c4.963,3.122 4.677,3.469 10.058,8.08c1.511,1.295 14.557,12.472 18.849,16.226c3.715,3.248 3.057,3.8 7.472,17.665c1.359,4.267 1.416,4.235 1.698,5.507c0.037,0.165 0.381,1.716 1.061,1.83c0.436,0.073 0.089,-0.314 1.542,-5.301c4.364,-14.971 4.332,-16.859 7.916,-18.613c1.282,-0.628 1.768,-0.462 18.093,-0.511c0.22,-0.001 4.491,-0.678 6.866,2.448c1.462,1.924 -1.375,5.692 -2.675,13.185c-1.197,6.898 -10.783,28.962 -10.769,39.272c0.007,5.103 0.476,6.856 7.079,25.312c8.633,24.132 8.912,24.025 11.124,30.866c0.366,1.132 0.561,1.042 5.005,14.002c2.57,7.494 5.788,11.561 1.542,15.287c-2.969,2.606 -4.775,-1.297 -12.12,-7.341c-5.888,-4.844 -17.361,-14.906 -18.857,-16.218c-5.598,-4.909 -6.33,-4.572 -8.012,-10.09c-1.174,-3.853 -5.135,-15.399 -6.334,-20.391c-0.737,0.138 -1.163,-0.309 -1.466,0.887c-0.183,0.724 -5.368,17.434 -6.203,18.998c-1.057,1.981 -1.44,2.496 -3.524,3.691Zm115.458,-25.884c-5.972,0.099 -31.211,-0.012 -31.608,0.087c-1.11,0.275 -0.816,0.768 -0.854,11.456c-0.043,12.316 0.353,12.594 -1.351,14.59c-2.439,2.857 -4.364,1.409 -14.579,1.94c-9.339,0.486 -9.798,0.07 -10.415,-0.491c-2.279,-2.068 -1.079,-2.69 -0.897,-34.269c0.312,-54.152 -0.476,-54.317 1.303,-59.664c0.31,-0.932 1.943,-5.839 6.636,-10.337c1.047,-1.004 5.026,-3.613 6.87,-4.391c9.477,-3.997 14.098,-2.485 43.502,-2.849c6.284,-0.078 8.505,-0.329 8.669,7.118c0.144,6.536 0.014,58.068 0.001,63.117c-0.012,4.58 0.784,11.286 -5.156,13.334c-0.163,0.056 -0.157,0.027 -2.12,0.358Zm-17.791,-55.723c-0.812,-2.514 -0.96,-3.287 -5.339,-3.21c-3.073,0.054 -8.799,-0.45 -9.411,4.543c-0.139,1.129 0.081,20.372 0.095,21.07c0.069,3.539 -0.9,9.921 5.825,10.383c4.471,0.307 8.803,0.304 8.879,-4.787c0.334,-22.427 0.105,-25.764 -0.048,-27.998Zm78.902,7.154c10.898,-0.668 10.831,-1.199 14.614,-1.746c0.074,-0.011 10.756,-1.183 17.517,-0.897c12.97,0.549 28.054,5.372 30.223,11.549c2.5,7.119 -2.447,10.472 -6.363,10.664c-3.588,0.176 -3.778,0.747 -6.902,-1.028c-5.216,-2.965 -11.369,-5.674 -23.249,-6.275c-2.517,-0.127 -3.827,-0.146 -3.944,1.59c-0.079,1.175 -0.264,49.742 0.026,50.334c1.059,2.164 7.251,-1.364 12.822,3.851c3.739,3.5 3.961,12.593 -5.398,12.686c-16.789,0.168 -16.845,0.181 -18.174,-0.41c-0.34,-0.151 -4.311,-2.279 -4.733,-6.207c-0.202,-1.877 0.241,-58.852 -0.177,-60.349c-0.163,-0.584 -3.459,-0.63 -3.307,1.467c0.524,7.263 2.941,20.38 -5.035,30.259c-8.267,10.24 -18.945,18.085 -25.99,23.832c-6.957,5.675 -8.96,0.857 -13.601,-4.837c-7.394,-9.072 -8.714,-9.86 -7.361,-14.851c1.474,-5.437 8.812,-7.908 12.477,-2.844c3.589,4.958 3.668,5.001 4.191,5.038c0.793,0.055 0.962,-0.35 5.802,-4.834c9.041,-8.375 15.042,-12.49 14.698,-22.642c-0.011,-0.31 -0.557,-6.235 -1.206,-7.533c-1.095,-2.191 -10.393,1.736 -23.27,-6.811c-4.237,-2.812 -7.056,-7.836 -7.504,-8.634c-4.098,-7.303 -5.125,-21.446 6.584,-20.537c3.056,0.237 5.625,2.695 6.096,5.011c0.907,4.458 0.01,11.233 9.964,14.18c5.221,1.546 11.021,0.349 18.92,0.174c1.148,-0.025 1.12,-0.098 2.28,-0.199Zm113.079,-14.905c-0.149,2.884 -0.54,3.405 -5.903,4.251c-3.202,0.505 -13.129,-0.227 -14.032,0.653c-0.212,0.206 -0.288,0.257 -0.257,42.77c0.029,41.054 0.14,41.12 -0.326,42.13c-0.848,1.838 -1.475,1.459 -18.343,1.514c-1.13,0.004 -3.279,0.333 -6.284,-0.946c-3.642,-1.55 -3.006,-3.608 -3.004,-13.251c0.014,-71.38 0.539,-71.86 -0.467,-72.335c-0.811,-0.383 -17.775,0.161 -18.921,-0.199c-3.088,-0.971 -2.713,-3.866 -2.772,-16.508c-0.014,-3.03 -0.805,-6.947 4.77,-8.536c1.082,-0.308 1.086,-0.248 14.058,-0.291c1.503,-0.005 10.823,0.423 44.87,0.322c3.018,-0.009 6.505,-0.709 6.586,3.588c0.028,1.498 0.007,10.479 0.025,16.837Zm-238.581,-22.907c0.413,-0.12 3.194,-0.931 5.33,0.721c5.025,3.886 3.445,6.359 0.208,13.785c-1.335,3.063 -2.838,9.428 -8.458,7.029c-3.277,-1.399 -3.331,-2.041 -3.79,-3.419c-0.161,-0.483 -0.442,-1.327 1.315,-6.225c3.064,-8.544 1.539,-9.725 5.395,-11.891Z" style="fill:#0096ff;"/></g><path d="M207.995,60.091c-2.304,-0.735 -5.661,-1.129 -9.935,-6.158c-13.208,-15.542 6.666,-41.826 27.214,-30.082c12.489,7.138 12.085,28.567 -1.291,34.064c-5.114,2.101 -10.453,1.208 -14.206,1.887c-0.142,0.026 -0.14,0.008 -1.781,0.288Zm9.857,-12.463c5.104,-2.098 4.766,-10.755 0,-13.478c-7.841,-4.482 -14.692,6.028 -9.652,11.959c0.856,1.007 2.933,2.076 4.996,2.293c1.87,0.197 3.728,-0.392 4.655,-0.774Z" style="fill:#0096ff;"/></g></g></svg>